# xmcd
#
# Track frame offsets:
#	150
#	21150
#	35140
#	52067
#	74537
#	89620
#	105270
#	117875
#	127825
#	142487
#	156100
#	170322
#
# Disc length: 2447 seconds
#
# Revision: 1
# Processed by: cddbd v1.4PL0 Copyright (c) Steve Scherf et al.
# Submitted via: audiograbber 1.81.03
#
DISCID=aa098d0c
DTITLE=Broderick Smith - Crayon Angels
DYEAR=1996
DGENRE=Country
TTITLE0=Crazy Dreams
TTITLE1=Earth Rider
TTITLE2=My Town
TTITLE3=The Tower Of Song
TTITLE4=Will You Miss Me
TTITLE5=Jim Dean Of Indiana
TTITLE6=Beautiful Dreamer
TTITLE7=Blacksheep Boy
TTITLE8=I Still Miss Someone
TTITLE9=Crayon Angels
TTITLE10=Willard
TTITLE11=What Are They Doing In Heaven Today
EXTD=
EXTT0=
EXTT1=
EXTT2=
EXTT3=
EXTT4=
EXTT5=
EXTT6=
EXTT7=
EXTT8=
EXTT9=
EXTT10=
EXTT11=
PLAYORDER=
